<svg width="96" height="48" viewBox="0 0 96 48" fill="none" xmlns="http://www.w3.org/2000/svg">
<rect width="96" height="48" rx="8" fill="#1D1D1D"/>
<path d="M33.467 27.909H39.451V29.745H25.273V27.909H31.223V25.58H26.905V20.276H35.643V18.593H26.888V16.808H37.853V22.027H29.132V23.778H38.21V25.58H33.467V27.909ZM51.0947 19.103V19.035H42.3737V17.25H53.3387V19.103C53.3387 21.296 53.3387 23.438 52.7607 26.651L50.5337 26.447C51.0947 23.455 51.0947 21.228 51.0947 19.103ZM40.9117 27.586H55.0727V29.422H40.9117V27.586ZM69.5553 15.822V27.059H67.2943V15.822H69.5553ZM58.9643 20.786C58.9643 22.044 59.8823 22.809 61.0383 22.809C62.2113 22.809 63.0953 22.044 63.0953 20.786C63.0953 19.494 62.2113 18.746 61.0383 18.746C59.8823 18.746 58.9643 19.494 58.9643 20.786ZM65.2883 20.786C65.2883 23.064 63.4353 24.747 61.0383 24.747C58.6413 24.747 56.7713 23.064 56.7713 20.786C56.7713 18.474 58.6413 16.808 61.0383 16.808C63.4353 16.808 65.2883 18.474 65.2883 20.786ZM61.3783 29.405H69.9463V31.19H59.1343V25.954H61.3783V29.405Z" fill="white"/>
</svg>
