<svg width="181" height="48" viewBox="0 0 181 48" fill="none" xmlns="http://www.w3.org/2000/svg">
<rect width="181" height="48" rx="8" fill="#488EF6"/>
<path d="M66.3562 17.012V19.29C66.3562 22.197 67.5972 25.053 70.2492 26.192L68.9742 28.011C67.1722 27.195 65.9652 25.648 65.2682 23.727C64.5712 25.818 63.2962 27.501 61.4262 28.385L60.0832 26.532C62.8202 25.359 64.1122 22.333 64.1122 19.29V17.012H66.3562ZM71.0142 15.788H73.2582V31.496H71.0142V15.788ZM85.2758 22.962L84.1368 24.696C82.4368 24.152 81.2638 23.047 80.5838 21.67C79.8868 23.183 78.6628 24.39 76.8608 24.985L75.6878 23.234C78.2378 22.401 79.3428 20.446 79.3938 18.508H76.2828V16.723H84.7488V18.508H81.6888C81.7398 20.31 82.8108 22.163 85.2758 22.962ZM77.7958 27.722V25.937H88.2508V31.479H86.0068V27.722H77.7958ZM90.3248 19.579V21.432H88.2508V25.24H86.0068V15.805H88.2508V19.579H90.3248ZM96.0865 26.43C97.1405 26.43 97.9055 25.716 97.9055 24.509C97.9055 23.336 97.1405 22.605 96.0865 22.605C95.0325 22.605 94.2505 23.336 94.2505 24.526C94.2505 25.716 95.0325 26.43 96.0865 26.43ZM96.0865 20.786C98.3475 20.786 100.03 22.333 100.03 24.509C100.03 26.719 98.3475 28.266 96.0865 28.266C93.8085 28.266 92.1085 26.719 92.1085 24.509C92.1085 22.333 93.8085 20.786 96.0865 20.786ZM97.1915 16.077V18.117H100.591V19.902H91.4795V18.117H94.9475V16.077H97.1915ZM106.099 21.925V23.778H103.855V31.462H101.611V15.805H103.855V21.925H106.099ZM108.07 17.42H115.584C115.584 22.214 113.969 26.124 108.41 28.81L107.237 27.042C111.232 25.121 112.966 22.673 113.289 19.205H108.07V17.42ZM117.981 15.788H120.242V31.445H117.981V15.788Z" fill="white"/>
</svg>
